<?xml version="1.0" encoding="UTF-8" standalone="no"?>
<!-- Created with Inkscape (http://www.inkscape.org/) -->

<svg
   xmlns:dc="http://purl.org/dc/elements/1.1/"
   xmlns:cc="http://creativecommons.org/ns#"
   xmlns:rdf="http://www.w3.org/1999/02/22-rdf-syntax-ns#"
   xmlns:svg="http://www.w3.org/2000/svg"
   xmlns="http://www.w3.org/2000/svg"
   xmlns:sodipodi="http://sodipodi.sourceforge.net/DTD/sodipodi-0.dtd"
   xmlns:inkscape="http://www.inkscape.org/namespaces/inkscape"
   version="1.1"
   id="svg235"
   xml:space="preserve"
   width="918.71539"
   height="637.9173"
   viewBox="0 0 918.71539 637.9173"
   sodipodi:docname="wasp_robot-03.svg"
   inkscape:version="0.92.3 (2405546, 2018-03-11)"><metadata
     id="metadata241"><rdf:RDF><cc:Work
         rdf:about=""><dc:format>image/svg+xml</dc:format><dc:type
           rdf:resource="http://purl.org/dc/dcmitype/StillImage" /><dc:title></dc:title></cc:Work></rdf:RDF></metadata><defs
     id="defs239" /><sodipodi:namedview
     pagecolor="#ffffff"
     bordercolor="#666666"
     borderopacity="1"
     objecttolerance="10"
     gridtolerance="10"
     guidetolerance="10"
     inkscape:pageopacity="0"
     inkscape:pageshadow="2"
     inkscape:window-width="1920"
     inkscape:window-height="1052"
     id="namedview237"
     showgrid="false"
     inkscape:zoom="0.83"
     inkscape:cx="463.77986"
     inkscape:cy="288.43868"
     inkscape:window-x="0"
     inkscape:window-y="0"
     inkscape:window-maximized="1"
     inkscape:current-layer="g245"
     fit-margin-top="0"
     fit-margin-left="0"
     fit-margin-right="0"
     fit-margin-bottom="0" /><g
     id="g243"
     inkscape:groupmode="layer"
     inkscape:label="ink_ext_XXXXXX"
     transform="matrix(1.3333333,0,0,-1.3333333,-336.22014,1149.4786)"><g
       id="g245"
       transform="scale(0.1)"><path
         d="m 6507.24,6647.98 c -857.97,581.26 -2486.79,1794.5 -2287.83,1927.39 48.33,32.28 120.53,45.72 207.36,45.72 193.71,0 460.07,-66.92 695.88,-140.97 -2.98,-3.72 -2.95,-9.16 0.31,-12.86 L 6667.68,6713.97 c -55.69,-15.41 -110.21,-37.43 -160.44,-65.99 m 182.11,71.65 -1545.02,1753.64 c 225.88,-71.9 420.33,-148.75 490.22,-176.61 125.08,-49.88 821.78,-1000.18 1176.25,-1557.66 -40.14,-3.01 -81.05,-9.48 -121.45,-19.37"
         style="fill:#fbfce9;fill-opacity:1;fill-rule:nonzero;stroke:none"
         id="path249"
         inkscape:connector-curvature="0" /><path
         d="m 7010.17,6330.37 c -2.77,0 -5.53,1.14 -7.5,3.38 L 5122.96,8467.26 c -3.65,4.15 -3.25,10.46 0.89,14.12 4.14,3.66 10.47,3.25 14.12,-0.9 l 1879.7,-2133.5 c 3.65,-4.15 3.25,-10.47 -0.89,-14.12 -1.91,-1.67 -4.26,-2.49 -6.61,-2.49"
         style="fill:#512336;fill-opacity:1;fill-rule:nonzero;stroke:none"
         id="path251"
         inkscape:connector-curvature="0" /><path
         d="m 5504.48,8032.78 -0.46,0.01 -904.44,40.41 c -5.51,0.25 -9.79,4.92 -9.54,10.44 0.25,5.52 5.08,9.69 10.43,9.54 l 904.44,-40.41 c 5.52,-0.25 9.79,-4.91 9.55,-10.43 -0.24,-5.37 -4.67,-9.56 -9.98,-9.56"
         style="fill:#512336;fill-opacity:1;fill-rule:nonzero;stroke:none"
         id="path253"
         inkscape:connector-curvature="0" /><path
         d="m 5434.58,7412.81 c -4.04,0 -7.84,2.47 -9.36,6.48 -1.94,5.17 0.67,10.93 5.84,12.88 l 453.83,170.92 c 5.17,1.92 10.93,-0.67 12.88,-5.84 1.95,-5.17 -0.67,-10.94 -5.83,-12.88 l -453.83,-170.92 c -1.16,-0.43 -2.35,-0.64 -3.53,-0.64"
         style="fill:#512336;fill-opacity:1;fill-rule:nonzero;stroke:none"
         id="path255"
         inkscape:connector-curvature="0" /><path
         d="m 6029.38,6976.63 c -3.55,0 -6.99,1.89 -8.8,5.23 -2.64,4.85 -0.84,10.92 4.01,13.56 l 265.84,144.3 c 4.88,2.62 10.92,0.84 13.56,-4.02 2.64,-4.85 0.84,-10.92 -4.01,-13.56 l -265.84,-144.3 c -1.52,-0.82 -3.15,-1.21 -4.76,-1.21"
         style="fill:#512336;fill-opacity:1;fill-rule:nonzero;stroke:none"
         id="path257"
         inkscape:connector-curvature="0" /><path
         d="m 9400.49,6940.28 c -0.97,-0.01 -1.95,0.12 -2.92,0.37 l -948.66,247.49 -748.86,-182.31 c -6.2,-1.48 -12.43,2.28 -13.94,8.47 -1.5,6.19 2.29,12.43 8.49,13.94 l 751.69,183 c 1.83,0.45 3.8,0.44 5.62,-0.05 l 951.48,-248.22 c 6.16,-1.61 9.86,-7.91 8.25,-14.07 -1.36,-5.19 -6.04,-8.62 -11.15,-8.62"
         style="fill:#512336;fill-opacity:1;fill-rule:nonzero;stroke:none"
         id="path259"
         inkscape:connector-curvature="0" /><path
         d="m 8924.01,6039.5 c -251.47,-197.63 -2064.29,610.11 -1848.9,897.4 215.4,287.28 879.62,287.28 879.62,287.28 43.35,-2.42 97.2,-22.08 157.24,-54.93 23.69,-12.65 48.2,-27.46 73.51,-44.15 148.07,-97.2 320.4,-254.98 465.52,-421.64 20.19,-23.15 39.85,-46.58 58.96,-70 202.47,-249.32 329.56,-503.22 214.05,-593.96"
         style="fill:#f78d15;fill-opacity:1;fill-rule:nonzero;stroke:none"
         id="path261"
         inkscape:connector-curvature="0" /><path
         d="m 8794.11,6008.73 c -345.04,-0.04 -1163.08,338.28 -1540.16,626.41 v 0 c 377.08,-288.13 1195.12,-626.41 1540.16,-626.41 58.21,0 103.01,9.64 129.9,30.77 0.11,0.09 0.22,0.17 0.32,0.25 -0.11,-0.08 -0.21,-0.16 -0.32,-0.25 -26.89,-21.13 -71.69,-30.77 -129.9,-30.77 m 130.44,31.2 c 0.03,0.02 0.05,0.04 0.09,0.07 -0.03,-0.03 -0.06,-0.05 -0.09,-0.07 m 0.37,0.29 c 0.01,0.01 0.01,0.01 0.02,0.02 -0.01,-0.01 -0.01,-0.01 -0.02,-0.02 m 31.94,41.94 c 5.62,13.03 9,27.49 10.34,43.2 0.05,0.01 0.11,0.02 0.16,0.03 -1.42,-15.71 -4.86,-30.19 -10.5,-43.23"
         style="fill:#f9c372;fill-opacity:1;fill-rule:nonzero;stroke:none"
         id="path263"
         inkscape:connector-curvature="0" /><path
         d="m 8794.11,6008.73 c -345.04,0 -1163.08,338.28 -1540.16,626.41 1.59,6.15 2.45,12.61 2.45,19.26 0,8.9 -1.5,17.4 -4.4,25.3 -10.3,29.7 -38.6,51 -71.8,51 -10.71,0 -20.89,-2.2 -30.13,-6.17 -58.83,58.76 -92.74,113.22 -92.7,159.66 0.02,19 5.72,36.68 17.74,52.71 27.73,36.88 63,69.19 103.12,97.19 -129.6,-266.66 1251.04,-913.02 1728.13,-913.08 22.38,-0.01 42.68,1.41 60.84,4.35 -1.34,-15.71 -4.72,-30.17 -10.34,-43.2 -7.07,-16.33 -17.59,-30.42 -31.92,-41.92 -0.01,-0.01 -0.01,-0.01 -0.02,-0.02 -0.09,-0.07 -0.19,-0.15 -0.28,-0.22 -0.04,-0.03 -0.06,-0.05 -0.09,-0.07 -0.07,-0.06 -0.15,-0.12 -0.22,-0.18 -0.1,-0.08 -0.21,-0.16 -0.32,-0.25 -26.89,-21.13 -71.69,-30.77 -129.9,-30.77"
         style="fill:#f36817;fill-opacity:1;fill-rule:nonzero;stroke:none"
         id="path265"
         inkscape:connector-curvature="0" /><path
         d="m 8042.74,6474.89 c -158.54,0 -308.13,43.32 -408.95,172.57 -170.17,218.15 276.79,438.06 478.18,521.79 23.69,-12.65 48.2,-27.46 73.51,-44.15 131.98,-86.63 283.23,-221.4 417.3,-367.68 -6.31,6.88 -12.66,13.72 -19.06,20.54 -129.21,138.3 -272.5,264.51 -398.2,347.1 -123.4,-35.6 -277.1,-92.1 -383.9,-167.7 -76.4,-54.2 -128.78,-118.22 -128.81,-191.49 -0.01,-31.08 9.4,-63.83 30.4,-98.2 52.31,-85.57 158.68,-117.02 286.89,-117.02 175.16,0 391.08,58.77 565.15,118.47 15.15,-17.94 30.82,-37.29 46.29,-57.89 3.32,-4.31 6.58,-8.62 9.78,-12.9 -148.53,-52.6 -365.87,-123.44 -568.58,-123.44 m 640.45,149.13 c -7,10.69 -14.56,21.4 -22.69,32.01 -10.46,13.88 -21.34,26.87 -32.4,38.94 7.76,2.85 15.42,5.69 22.92,8.49 20.17,-23.16 39.83,-46.58 58.94,-70 -8.39,-2.92 -17.33,-6.08 -26.77,-9.44"
         style="fill:#f36817;fill-opacity:1;fill-rule:nonzero;stroke:none"
         id="path267"
         inkscape:connector-curvature="0" /><path
         d="m 8651.02,6703.46 c -298.1,-111.5 -810.2,-260.9 -947.81,-35.79 -70.5,115.4 -10.4,212.5 98.41,289.69 106.8,75.6 260.5,132.1 383.9,167.7 125.7,-82.59 268.99,-208.8 398.2,-347.1 23,-24.5 45.4,-49.4 67.3,-74.5"
         style="fill:#512336;fill-opacity:1;fill-rule:nonzero;stroke:none"
         id="path269"
         inkscape:connector-curvature="0" /><path
         d="m 7990.1,6550.65 c -128.21,0 -234.58,31.45 -286.89,117.02 -21,34.37 -30.41,67.12 -30.4,98.2 0.03,73.27 52.41,137.29 128.81,191.49 -16.1,-94.1 -26.5,-297.39 180.39,-312.7 13.47,-0.99 27.34,-1.47 41.49,-1.47 149.56,0 332.95,52.83 466.52,99.86 18.57,-20.7 41.25,-45.55 65.23,-73.93 -174.07,-59.7 -389.99,-118.47 -565.15,-118.47 m 638,144.32 c -26.01,28.41 -53.02,51.78 -78.09,69.99 11.95,4.52 23.21,8.87 33.71,13 23,-24.5 45.4,-49.4 67.3,-74.5 -7.5,-2.8 -15.16,-5.64 -22.92,-8.49"
         style="fill:#371923;fill-opacity:1;fill-rule:nonzero;stroke:none"
         id="path271"
         inkscape:connector-curvature="0" /><path
         d="m 8098.24,6788.81 c 0,-59.48 -48.22,-107.7 -107.7,-107.7 -59.48,0 -107.7,48.22 -107.7,107.7 0,59.48 48.22,107.7 107.7,107.7 59.48,0 107.7,-48.22 107.7,-107.7"
         style="fill:#f9f9f8;fill-opacity:1;fill-rule:nonzero;stroke:none"
         id="path273"
         inkscape:connector-curvature="0" /><path
         d="m 7990.54,6890.74 c -56.2,0 -101.94,-45.73 -101.94,-101.93 0,-56.21 45.74,-101.93 101.94,-101.93 56.21,0 101.93,45.72 101.93,101.93 0,56.2 -45.72,101.93 -101.93,101.93 z m 0,-215.39 c -62.56,0 -113.46,50.9 -113.46,113.46 0,62.57 50.9,113.47 113.46,113.47 62.57,0 113.46,-50.9 113.46,-113.47 0,-62.56 -50.89,-113.46 -113.46,-113.46"
         style="fill:#512336;fill-opacity:1;fill-rule:nonzero;stroke:none"
         id="path275"
         inkscape:connector-curvature="0" /><path
         d="m 7583.31,6934.01 c -61.34,0 -111.06,44.99 -111.06,100.49 0,3.74 0.22,7.43 0.66,11.06 13.32,5.1 26.96,10.16 40.88,15.12 51.84,19.02 101.56,34.47 145.19,47.37 21.78,-18.34 35.4,-44.51 35.4,-73.55 0,-55.5 -49.73,-100.49 -111.07,-100.49"
         style="fill:#f36817;fill-opacity:1;fill-rule:nonzero;stroke:none"
         id="path277"
         inkscape:connector-curvature="0" /><path
         d="m 7680.91,7027.76 c 0,-25.22 -22.6,-45.67 -50.48,-45.67 -27.88,0 -50.49,20.45 -50.49,45.67 0,25.23 22.61,45.68 50.49,45.68 27.88,0 50.48,-20.45 50.48,-45.68"
         style="fill:#361b25;fill-opacity:1;fill-rule:nonzero;stroke:none"
         id="path279"
         inkscape:connector-curvature="0" /><path
         d="m 7623.99,7006.13 c -4.24,0 -8.33,2.36 -10.35,6.42 -2.82,5.71 -0.48,12.62 5.23,15.45 l 693.31,343.29 c 1.71,0.84 3.64,1.22 5.51,1.2 l 982.74,-33.66 c 6.36,-0.22 11.35,-5.56 11.12,-11.93 -0.21,-6.36 -5.51,-11.38 -11.91,-11.13 l -979.84,33.57 -690.7,-342.01 c -1.65,-0.81 -3.4,-1.2 -5.11,-1.2"
         style="fill:#512336;fill-opacity:1;fill-rule:nonzero;stroke:none"
         id="path281"
         inkscape:connector-curvature="0" /><path
         d="m 7221.17,6945.28 c -3.6,0 -6.02,0.87 -7.19,2.74 -10.96,16.28 102.34,120.62 274.63,182.29 101.43,37.05 196.59,49.54 257.95,49.54 42.63,0 68.94,-6.02 69.75,-14.03 1.96,-14.13 -63.62,-30.06 -157.33,-57.77 -19.83,16.71 -46.43,26.93 -75.67,26.93 -57.21,0 -104.31,-39.12 -110.4,-89.42 -126.8,-48.52 -224.04,-100.28 -251.74,-100.28"
         style="fill:#f9b85b;fill-opacity:1;fill-rule:nonzero;stroke:none"
         id="path283"
         inkscape:connector-curvature="0" /><path
         d="m 7472.91,7045.56 c 6.09,50.3 53.19,89.42 110.4,89.42 29.24,0 55.84,-10.22 75.67,-26.93 -43.63,-12.9 -93.35,-28.35 -145.19,-47.37 -13.92,-4.96 -27.56,-10.02 -40.88,-15.12"
         style="fill:#f6a155;fill-opacity:1;fill-rule:nonzero;stroke:none"
         id="path285"
         inkscape:connector-curvature="0" /><path
         d="m 8748.83,6406.87 c -19.18,0 -63.35,92.13 -137.51,191.46 26.28,9.3 50.36,18.02 71.87,25.69 68.67,-104.87 84.01,-208.81 68.18,-216.53 -0.8,-0.41 -1.64,-0.62 -2.54,-0.62"
         style="fill:#f9b85b;fill-opacity:1;fill-rule:nonzero;stroke:none"
         id="path287"
         inkscape:connector-curvature="0" /><path
         d="m 8611.32,6598.33 c -3.2,4.28 -6.46,8.59 -9.78,12.9 -15.47,20.6 -31.14,39.95 -46.29,57.89 25.27,8.66 49.6,17.33 72.85,25.85 11.06,-12.07 21.94,-25.06 32.4,-38.94 8.13,-10.61 15.69,-21.32 22.69,-32.01 -21.51,-7.67 -45.59,-16.39 -71.87,-25.69"
         style="fill:#f6a155;fill-opacity:1;fill-rule:nonzero;stroke:none"
         id="path289"
         inkscape:connector-curvature="0" /><path
         d="m 8490.02,6743.05 c -32.18,35.88 -51.98,59.3 -44.66,67.08 1.39,1.56 3.96,2.34 7.56,2.34 16.33,0 53.8,-16.05 97.09,-47.51 -18.49,-6.99 -38.6,-14.38 -59.99,-21.91"
         style="fill:#937084;fill-opacity:1;fill-rule:nonzero;stroke:none"
         id="path291"
         inkscape:connector-curvature="0" /><path
         d="m 8555.25,6669.12 c -23.98,28.38 -46.66,53.23 -65.23,73.93 21.39,7.53 41.5,14.92 59.99,21.91 25.07,-18.21 52.08,-41.58 78.09,-69.99 -23.25,-8.52 -47.58,-17.19 -72.85,-25.85"
         style="fill:#816876;fill-opacity:1;fill-rule:nonzero;stroke:none"
         id="path293"
         inkscape:connector-curvature="0" /><path
         d="m 7278.46,6337.08 c -18.58,-457.72 -836.27,-822.81 -1000.25,-287.01 -197.35,646.19 681.19,842.74 897.67,574.3 76.46,-95.04 106.62,-193.05 102.58,-287.29"
         style="fill:#f78d15;fill-opacity:1;fill-rule:nonzero;stroke:none"
         id="path295"
         inkscape:connector-curvature="0" /><path
         d="m 6385.88,6353.98 c -3.47,0 -4.05,4.88 -1.78,16.03 0,0 6.79,25.68 27.81,61.51 18.69,-2.56 36.97,-5.01 54.5,-7.32 -45.11,-39.6 -71.85,-70.22 -80.53,-70.22 m 256.61,187.66 c -20.52,13.75 -42.85,28.34 -66.7,43.58 72.03,38.2 169.8,66.07 301.73,66.07 16.1,0 32.65,-0.41 49.78,-1.27 92.11,-4.63 -98.92,-34.15 -247.98,-92.57 -12.69,-4.97 -24.97,-10.26 -36.83,-15.81"
         style="fill:#f9b85b;fill-opacity:1;fill-rule:nonzero;stroke:none"
         id="path297"
         inkscape:connector-curvature="0" /><path
         d="m 6632.86,5783.88 c -50.17,0 -98.55,7.84 -143.07,24.66 -2,16.1 -13.15,30.33 -29.64,35.46 -4.22,1.32 -8.49,1.94 -12.69,1.94 -7.42,0 -14.61,-1.95 -20.91,-5.49 -65.64,42.59 -118.08,110.76 -148.34,209.62 0,0 126.04,-49.73 303.84,-49.73 201.61,-0.01 469.78,63.91 696.41,336.74 -5.84,-143.9 -90.68,-278.64 -209.35,-379.12 -6.89,10.47 -18.46,16.34 -30.39,16.34 -5.86,0 -11.81,-1.42 -17.33,-4.42 -17.65,-9.6 -24.17,-31.68 -14.58,-49.32 1.36,-2.5 2.96,-4.77 4.77,-6.81 -58.5,-40.77 -122.67,-73.58 -188.07,-96.02 -0.58,23.04 -19.43,41.54 -42.61,41.54 -23.55,0 -42.64,-19.09 -42.64,-42.64 0,-7.59 1.99,-14.72 5.46,-20.89 -37.35,-7.76 -74.58,-11.86 -110.86,-11.86"
         style="fill:#f36817;fill-opacity:1;fill-rule:nonzero;stroke:none"
         id="path299"
         inkscape:connector-curvature="0" /><path
         d="m 6255.8,5727.51 c -34.74,-276.79 -187.13,-498.92 -383.94,-665.04 -92.35,-78.08 -194.4,-143.77 -298.6,-197.08 -243.94,-125.2 -499.71,-182.01 -669.61,-169.35 -26.39,1.88 -52.77,4.03 -79.16,6.45 l -2.42,0.27 c -160.47,14.27 -321.48,35 -477.64,57.08 l -8.62,1.08 c -249.85,35.54 -486.52,74.85 -686.84,98.27 -64.89,7.81 -126.01,13.74 -182.28,17.24 -128.7,8.61 -226.58,1.14 -297.39,-22.55 53.85,95.31 101.12,189.21 155.5,274.56 l 1.08,1.61 c 194.93,306.13 392.56,549.8 587.76,741.5 122.51,120.9 244.2,221.05 363.75,303.71 v 0.27 c 234.24,162.63 460.68,258.21 670.42,308.56 129.24,31.23 252.28,44.96 366.98,46.57 505.1,7.54 850,-220.5 863.2,-254.97 77.27,-201.67 98.01,-384.21 77.81,-548.18"
         style="fill:#f78d15;fill-opacity:1;fill-rule:nonzero;stroke:none"
         id="path301"
         inkscape:connector-curvature="0" /><path
         d="m 5871.86,5062.47 c -92.35,-78.08 -194.4,-143.77 -298.6,-197.08 -53.58,67.31 -102.58,133.01 -147.81,197.35 -450.72,641.88 -503.76,1135.95 -477.64,1421.35 129.24,31.23 252.28,44.96 366.98,46.57 105.27,-550.6 301.28,-1000.78 465.79,-1306.91 32.04,-59.23 62.74,-113.08 91.28,-161.28"
         style="fill:#512336;fill-opacity:1;fill-rule:nonzero;stroke:none"
         id="path303"
         inkscape:connector-curvature="0" /><path
         d="m 4824.49,4702.49 -2.42,0.27 -477.64,57.08 -8.62,1.08 c -69.19,104.74 -127.89,205.16 -177.43,301.29 -167.2,324.17 -229.67,597.45 -244.74,809.34 122.51,120.9 244.2,221.05 363.75,303.71 85.89,-468.48 238.01,-865.35 383.13,-1165.02 57.35,-118.2 113.62,-221.32 163.97,-307.75"
         style="fill:#512336;fill-opacity:1;fill-rule:nonzero;stroke:none"
         id="path305"
         inkscape:connector-curvature="0" /><path
         d="m 3648.97,4859.19 c -190.36,-67.58 -573.22,-485.18 -701.92,-656.68 0.81,13.73 -0.47,27.85 2.96,41.19 104.73,407.45 261.58,748.26 431.2,969.12 72.07,-194.91 99.46,-251.31 166.26,-290.35 33.14,-19.38 110.12,-60.05 101.5,-63.28"
         style="fill:#512336;fill-opacity:1;fill-rule:nonzero;stroke:none"
         id="path307"
         inkscape:connector-curvature="0" /><path
         d="m 4952.19,4694.31 c -16.85,0 -33.05,0.57 -48.54,1.73 -26.39,1.88 -52.77,4.03 -79.16,6.45 v 0 c -50.35,86.43 -106.62,189.55 -163.97,307.75 89.89,-9.05 177.77,-13.85 263.45,-13.85 176.85,-0.01 344.41,20.47 501.48,66.35 v 0 c 45.23,-64.34 94.23,-130.04 147.81,-197.35 -221.69,-113.79 -453.18,-171.08 -621.07,-171.08 m -130.12,8.45 c -160.47,14.27 -321.48,35 -477.64,57.08 l 477.64,-57.08 m -486.26,58.16 c -249.85,35.54 -486.52,74.85 -686.84,98.27 8.62,3.23 -68.36,43.9 -101.5,63.28 162.23,84.07 362.8,139.74 609.17,139.74 0.58,0 1.16,0 1.74,0 v 0 c 49.54,-96.13 108.24,-196.55 177.43,-301.29 m 1536.05,301.55 c -28.54,48.2 -59.24,102.05 -91.28,161.28 178.78,115.51 338.17,279.75 475.22,503.76 -34.74,-276.79 -187.13,-498.92 -383.94,-665.04 v 0"
         style="fill:#f36817;fill-opacity:1;fill-rule:nonzero;stroke:none"
         id="path309"
         inkscape:connector-curvature="0" /><path
         d="m 5573.26,4865.39 v 0 c -53.58,67.31 -102.58,133.01 -147.81,197.35 125.47,36.35 243.93,89.39 355.13,161.01 v 0 c 32.04,-59.23 62.74,-113.08 91.28,-161.28 v 0 c -92.35,-78.08 -194.4,-143.77 -298.6,-197.08"
         style="fill:#501d1f;fill-opacity:1;fill-rule:nonzero;stroke:none"
         id="path311"
         inkscape:connector-curvature="0" /><path
         d="m 4824.49,4702.49 -2.42,0.27 -477.64,57.08 -8.62,1.08 v 0 c -69.19,104.74 -127.89,205.16 -177.43,301.29 92.08,0 190.9,-7.82 296.44,-25.04 69.74,-11.31 138.39,-20.47 205.7,-26.93 v 0 c 57.35,-118.2 113.62,-221.32 163.97,-307.75 v 0"
         style="fill:#501d1f;fill-opacity:1;fill-rule:nonzero;stroke:none"
         id="path313"
         inkscape:connector-curvature="0" /><path
         d="m 2947.05,4202.51 c 0.81,13.73 1.89,27.46 2.96,41.19 68.39,167.2 220.24,447.48 516.68,632.73 25.85,16.15 52.77,31.5 80.78,46.04 v 0 c 33.14,-19.38 110.12,-60.05 101.5,-63.28 v 0 c -190.36,-67.58 -573.22,-485.18 -701.92,-656.68"
         style="fill:#501d1f;fill-opacity:1;fill-rule:nonzero;stroke:none"
         id="path315"
         inkscape:connector-curvature="0" /><path
         d="m 3644.86,5262.11 c -13.18,0 -15.4,18.92 -6.75,62.16 0,0 60.22,232.36 281.46,482.56 8.76,-78.49 24.05,-164.39 48.33,-257.25 -181.72,-160.83 -288.96,-287.47 -323.04,-287.47 m 707.28,579.14 c -23.24,87.86 -44.5,179 -63.14,273.11 171.6,104.58 386.14,194 653.33,247.55 -0.01,-70.39 5.19,-149.44 18.46,-236.61 -67.8,-23.21 -135.38,-47.89 -200.82,-74.07 -151.36,-60.54 -287.24,-133.36 -407.83,-209.98 m 1025,412.12 c -13.3,51.4 -25.88,103.8 -37.67,157.31 56.13,2.96 113.92,4.48 173.68,4.48 61.17,0 124.08,-1.6 189.17,-4.94 223.79,-11.47 7.78,-62.39 -325.18,-156.85"
         style="fill:#f9b85b;fill-opacity:1;fill-rule:nonzero;stroke:none"
         id="path317"
         inkscape:connector-curvature="0" /><path
         d="m 4960.79,6125.3 c -13.27,87.17 -18.47,166.22 -18.46,236.61 121.22,24.3 253.33,41.19 397.14,48.77 11.79,-53.51 24.37,-105.91 37.67,-157.31 -127.65,-36.21 -272.51,-78.83 -416.35,-128.07"
         style="fill:#937084;fill-opacity:1;fill-rule:nonzero;stroke:none"
         id="path319"
         inkscape:connector-curvature="0" /><path
         d="m 3967.9,5549.58 c -24.28,92.86 -39.57,178.76 -48.33,257.25 92.49,104.6 213.22,212.33 369.43,307.53 18.64,-94.11 39.9,-185.25 63.14,-273.11 -152.48,-96.88 -280.52,-199.87 -384.24,-291.67"
         style="fill:#937084;fill-opacity:1;fill-rule:nonzero;stroke:none"
         id="path321"
         inkscape:connector-curvature="0" /><path
         d="m 3114.87,4581.5 c -0.54,0 -1.02,0.16 -1.45,0.47 -28.2,20.81 168.05,427.97 168.05,427.97 19.24,33.03 29.99,47.12 34.22,47.12 12.29,0 -30.46,-118.9 -80.01,-237.78 -49.56,-118.89 -105.91,-237.78 -120.81,-237.78"
         style="fill:#937084;fill-opacity:1;fill-rule:nonzero;stroke:none"
         id="path323"
         inkscape:connector-curvature="0" /><path
         d="m 4697.05,5173.65 c -27.83,0 -53.6,17.96 -62.35,45.85 l -66.8,212.81 c -0.7,2.09 -1.2,4.19 -1.6,6.29 -7.3,-4.1 -13.9,-9.2 -19.7,-15.3 v 0 l -0.7,2.1 c -7.1,22.6 -4.9,46.5 6,67.5 11,20.9 29.4,36.4 52,43.4 l 478.2,150.02 c 2.82,-7.15 5.67,-14.27 8.59,-21.47 L 4610.8,5514.3 c -16.7,-5.2 -30.4,-16.6 -38.4,-32.1 -7.1,-13.5 -9.2,-28.8 -6.1,-43.6 0.4,-2.1 0.9,-4.2 1.6,-6.29 l 66.8,-212.81 c 8.75,-27.89 34.52,-45.85 62.35,-45.85 6.5,0 13.11,0.99 19.65,3.05 l 530.71,166.44 v 0 L 4716.7,5176.7 c -6.54,-2.06 -13.15,-3.04 -19.65,-3.05 m 959.89,297.92 v 0 l 68.96,21.63 c 15.4,4.9 27.8,15 35.8,27.7 9.8,15.7 13,35.3 7,54.3 L 5702,5788 c -5.3,16.7 -16.7,30.3 -32.1,38.4 -9.5,5 -19.9,7.5 -30.3,7.5 -6.5,0 -13.2,-1 -19.6,-3 l -99.8,-31.31 c -2.68,7.2 -5.34,14.39 -8.01,21.65 l 100.91,31.66 c 8.7,2.75 17.62,4.1 26.5,4.1 14.09,0 28.08,-3.41 40.9,-10.09 21,-11.01 36.4,-29.41 43.5,-52.01 l 66.7,-212.8 c 10,-31.8 1,-65.2 -20.7,-87.8 v 0 l -8.3,26.6 c -8,-12.7 -20.4,-22.8 -35.8,-27.7 l -68.96,-21.63"
         style="fill:#4e1914;fill-opacity:1;fill-rule:nonzero;stroke:none"
         id="path325"
         inkscape:connector-curvature="0" /><path
         d="m 5090.69,5664.85 c -2.92,7.2 -5.77,14.32 -8.59,21.47 l 430.09,134.92 c 2.67,-7.26 5.33,-14.45 8.01,-21.65 l -429.51,-134.74"
         style="fill:#1e1314;fill-opacity:1;fill-rule:nonzero;stroke:none"
         id="path327"
         inkscape:connector-curvature="0" /><path
         d="m 4677.1,5060.6 c -16.75,0 -32.98,4.8 -46.89,13.47 -25.94,55.73 -51.95,114.48 -77.6,176.12 l -26.71,85.21 c -7.1,22.6 -4.9,46.5 6,67.5 4,7.5 8.9,14.41 14.7,20.4 v 0 l 66,-210.7 c 11.9,-37.79 46.9,-62 84.5,-62 8.8,0 17.7,1.3 26.5,4.1 l 535.53,167.95 c 13.43,-23.27 27.43,-46.84 41.94,-70.57 L 4703.6,5064.7 c -8.8,-2.8 -17.7,-4.1 -26.5,-4.1 m 1024.5,317.09 c -11.57,23.63 -23.21,47.93 -34.85,72.8 l 66.05,20.71 c 14.6,4.6 27.3,12.7 37.2,23.1 v 0 l 0.7,-2.2 c 14.6,-46.5 -11.4,-96.3 -57.9,-110.9 l -11.2,-3.51"
         style="fill:#f36218;fill-opacity:1;fill-rule:nonzero;stroke:none"
         id="path329"
         inkscape:connector-curvature="0" /><path
         d="m 5301.07,5252.08 c -14.51,23.73 -28.51,47.3 -41.94,70.57 l 407.62,127.84 c 11.64,-24.87 23.28,-49.17 34.85,-72.8 l -400.53,-125.61"
         style="fill:#501b1d;fill-opacity:1;fill-rule:nonzero;stroke:none"
         id="path331"
         inkscape:connector-curvature="0" /><path
         d="m 4630.21,5074.07 c -17.31,10.79 -31.01,27.57 -37.61,48.53 l -39.99,127.59 c 25.65,-61.64 51.66,-120.39 77.6,-176.12"
         style="fill:#501b1d;fill-opacity:1;fill-rule:nonzero;stroke:none"
         id="path333"
         inkscape:connector-curvature="0" /><path
         d="m 4697.1,5150.6 c -37.6,0 -72.6,24.21 -84.5,62 l -66,210.7 c 5.8,6.1 12.4,11.2 19.7,15.3 0.4,-2.1 0.9,-4.2 1.6,-6.29 l 66.8,-212.81 c 8.75,-27.89 34.52,-45.85 62.35,-45.85 6.5,0.01 13.11,0.99 19.65,3.05 l 530.71,166.44 c 3.88,-6.84 7.75,-13.61 11.72,-20.49 L 4723.6,5154.7 c -8.8,-2.8 -17.7,-4.1 -26.5,-4.1 m 969.65,299.89 c -3.28,6.99 -6.54,13.99 -9.81,21.08 l 68.96,21.63 c 15.4,4.9 27.8,15 35.8,27.7 l 8.3,-26.6 c -9.9,-10.4 -22.6,-18.5 -37.2,-23.1 l -66.05,-20.71"
         style="fill:#4c1714;fill-opacity:1;fill-rule:nonzero;stroke:none"
         id="path335"
         inkscape:connector-curvature="0" /><path
         d="m 5259.13,5322.65 c -3.97,6.88 -7.84,13.65 -11.72,20.49 l 409.53,128.43 c 3.27,-7.09 6.53,-14.09 9.81,-21.08 l -407.62,-127.84"
         style="fill:#1e1313;fill-opacity:1;fill-rule:nonzero;stroke:none"
         id="path337"
         inkscape:connector-curvature="0" /><path
         d="m 6716.83,6351.46 c -26.18,0 -49.27,13.18 -63.01,33.27 12.24,-8.38 27.05,-13.27 43.01,-13.27 21.86,0 41.57,9.19 55.48,23.92 3.27,-0.07 6.34,-0.1 9.26,-0.1 10.64,0 18.97,0.45 24.94,1.36 -11.9,-26.63 -38.62,-45.18 -69.68,-45.18 m 76.11,71.07 c -4.54,6.16 -11.24,13.36 -19.92,21.46 0.06,1.24 0.09,2.49 0.09,3.75 0,15.96 -4.89,30.77 -13.27,43.02 20.09,-13.74 33.27,-36.84 33.27,-63.02 0,-1.75 -0.05,-3.49 -0.17,-5.21"
         style="fill:#f04e1c;fill-opacity:1;fill-rule:nonzero;stroke:none"
         id="path339"
         inkscape:connector-curvature="0" /><path
         d="m 6031.96,3836.71 c -1.88,0 -3.8,0.47 -5.56,1.45 -5.58,3.07 -7.61,10.08 -4.52,15.66 l 95.74,173.2 1.82,2.46 227.39,233.85 c 4.44,4.55 11.74,4.68 16.3,0.23 4.56,-4.44 4.66,-11.74 0.23,-16.31 l -226.3,-232.73 -95,-171.85 c -2.11,-3.81 -6.03,-5.96 -10.1,-5.96"
         style="fill:#512336;fill-opacity:1;fill-rule:nonzero;stroke:none"
         id="path341"
         inkscape:connector-curvature="0" /><path
         d="m 6823.52,5816.63 c 0,-23.54 -19.08,-42.63 -42.62,-42.63 -23.55,0 -42.64,19.09 -42.64,42.63 0,23.55 19.09,42.64 42.64,42.64 23.54,0 42.62,-19.09 42.62,-42.64"
         style="fill:#512336;fill-opacity:1;fill-rule:nonzero;stroke:none"
         id="path343"
         inkscape:connector-curvature="0" /><path
         d="m 6825.77,5098.64 c 0,-23.53 -19.09,-42.62 -42.64,-42.62 -23.53,0 -42.62,19.09 -42.62,42.62 0,23.55 19.09,42.64 42.62,42.64 23.55,0 42.64,-19.09 42.64,-42.64"
         style="fill:#512336;fill-opacity:1;fill-rule:nonzero;stroke:none"
         id="path345"
         inkscape:connector-curvature="0" /><path
         d="m 6572.23,4497.33 c 0,-23.54 -19.08,-42.62 -42.63,-42.62 -23.55,0 -42.63,19.08 -42.63,42.62 0,23.55 19.08,42.63 42.63,42.63 23.55,0 42.63,-19.08 42.63,-42.63"
         style="fill:#512336;fill-opacity:1;fill-rule:nonzero;stroke:none"
         id="path347"
         inkscape:connector-curvature="0" /><path
         d="m 6895.69,5669.54 c 3.79,-139 13.85,-277.75 21.86,-416.58 3.58,-59.27 -38.2,-111.62 -93.26,-113.34 -29.76,-0.78 -59.52,-0.78 -89.29,0.01 -54.8,1.75 -96.56,54.05 -93,113.33 8.01,138.83 18.07,277.57 21.86,416.58 1.79,59.49 36.68,107.65 80.22,107.66 23.73,0 47.45,0 71.18,0 43.74,0.02 78.63,-48.18 80.43,-107.66"
         style="fill:#512336;fill-opacity:1;fill-rule:nonzero;stroke:none"
         id="path349"
         inkscape:connector-curvature="0" /><path
         d="m 6796.58,5139.12 c -0.01,0 -0.01,0 -0.01,0 5.09,0.05 10.19,0.12 15.28,0.22 -5.09,-0.1 -10.18,-0.17 -15.27,-0.22"
         style="fill:#f9c372;fill-opacity:1;fill-rule:nonzero;stroke:none"
         id="path351"
         inkscape:connector-curvature="0" /><path
         d="m 6795.2,5139.1 v 0 c 0.46,0.01 0.91,0.01 1.37,0.02 0,0 0,0 0.01,0 -0.46,-0.01 -0.92,-0.01 -1.38,-0.02"
         style="fill:#501d1f;fill-opacity:1;fill-rule:nonzero;stroke:none"
         id="path353"
         inkscape:connector-curvature="0" /><path
         d="m 6795.2,5139.1 c 8.77,253.42 -6.84,513.68 -20.61,638.1 13.55,0 27.11,0 40.67,0 43.74,0.02 78.63,-48.18 80.43,-107.66 3.79,-139 13.85,-277.75 21.86,-416.58 0.14,-2.32 0.21,-4.62 0.21,-6.91 0.09,-56.37 -40.57,-104.78 -93.47,-106.43 v 0 c -4.15,-0.11 -8.29,-0.2 -12.44,-0.28 -5.09,-0.1 -10.19,-0.17 -15.28,-0.22 -0.46,-0.01 -0.91,-0.01 -1.37,-0.01"
         style="fill:#501d1f;fill-opacity:1;fill-rule:nonzero;stroke:none"
         id="path355"
         inkscape:connector-curvature="0" /><path
         d="m 6704.29,5260.78 c -0.02,0 -0.03,0 -0.05,0 -10.34,0.34 -14.15,96.38 -9.6,213.67 4.56,117.37 12.68,212.28 21.07,212.3 8.47,-0.03 14.61,-94.92 12.1,-212.56 -2.39,-117.44 -13.32,-213.41 -23.52,-213.41"
         style="fill:#937084;fill-opacity:1;fill-rule:nonzero;stroke:none"
         id="path357"
         inkscape:connector-curvature="0" /><path
         d="m 6823.13,4939.52 c -49.55,-116.78 -94.13,-235.57 -140.33,-353.71 -19.6,-50.48 -71.84,-79.2 -115.27,-61.17 -23.43,9.86 -46.55,20.38 -69.39,31.55 -41.92,20.81 -54.62,79.02 -29.47,126.98 58.65,112.48 118.86,224.15 174.3,338.27 23.87,48.77 69.16,76.44 103.01,61.06 18.43,-8.38 36.87,-16.77 55.3,-25.15 34,-15.45 42.92,-67.79 21.85,-117.83"
         style="fill:#512336;fill-opacity:1;fill-rule:nonzero;stroke:none"
         id="path359"
         inkscape:connector-curvature="0" /><path
         d="m 6560.62,4527.57 c -0.2,0.09 -0.4,0.17 -0.6,0.26 0.2,-0.09 0.4,-0.17 0.6,-0.26 m -0.93,0.4 c -0.27,0.11 -0.54,0.23 -0.81,0.35 v 0 c 0.27,-0.12 0.54,-0.24 0.81,-0.35"
         style="fill:#f9c372;fill-opacity:1;fill-rule:nonzero;stroke:none"
         id="path361"
         inkscape:connector-curvature="0" /><path
         d="m 6558.88,4528.32 c -4.73,2.03 -9.45,4.08 -14.14,6.16 v 0 c 4.7,-2.08 9.41,-4.13 14.14,-6.16 v 0"
         style="fill:#501d1f;fill-opacity:1;fill-rule:nonzero;stroke:none"
         id="path363"
         inkscape:connector-curvature="0" /><path
         d="m 6594.85,4519.23 c -9.24,0 -18.46,1.73 -27.32,5.41 v 0 c -2.31,0.97 -4.61,1.95 -6.91,2.93 -0.2,0.09 -0.4,0.17 -0.6,0.26 -0.11,0.05 -0.22,0.09 -0.33,0.14 -0.27,0.11 -0.54,0.23 -0.81,0.35 -4.73,2.03 -9.44,4.08 -14.14,6.16 102.5,207.38 188.66,429.05 224.94,537.24 10.53,-4.79 21.06,-9.58 31.6,-14.37 21.72,-9.86 33.2,-34.78 33.18,-64.53 -0.02,-16.84 -3.71,-35.22 -11.33,-53.3 -49.55,-116.78 -94.13,-235.57 -140.33,-353.71 -15.6,-40.18 -51.89,-66.58 -87.95,-66.58"
         style="fill:#501d1f;fill-opacity:1;fill-rule:nonzero;stroke:none"
         id="path365"
         inkscape:connector-curvature="0" /><path
         d="m 6520.63,4667.54 c -0.23,0 -0.45,0.05 -0.64,0.14 -7.9,3.94 25.4,85.05 73.23,180.85 46.96,94.06 88.43,168.96 96.15,168.96 0.15,0 0.28,-0.03 0.4,-0.09 6.57,-3.02 -24.5,-83.99 -70.86,-180.81 -45.16,-94.47 -88.89,-169.05 -98.28,-169.05"
         style="fill:#937084;fill-opacity:1;fill-rule:nonzero;stroke:none"
         id="path367"
         inkscape:connector-curvature="0" /><path
         d="m 6533.62,4375.66 c -53.92,-69.55 -104.84,-141.33 -156.75,-212.38 -22.07,-30.4 -62.34,-40.28 -88.45,-20.34 -14.05,10.84 -27.81,22.08 -41.22,33.69 -24.61,21.54 -22.95,62.93 2.43,90.64 59.3,65.02 119.51,129.2 176.93,195.89 24.66,28.48 60.05,38.91 80.17,22.47 10.95,-8.94 21.91,-17.9 32.86,-26.85 20.21,-16.5 17.02,-53.28 -5.97,-83.12"
         style="fill:#512336;fill-opacity:1;fill-rule:nonzero;stroke:none"
         id="path369"
         inkscape:connector-curvature="0" /><path
         d="m 6320.02,4132.56 c -11.35,0 -22.36,3.32 -31.6,10.38 -4.58,3.52 -9.12,7.1 -13.64,10.71 v 0 c 4.52,-3.61 9.06,-7.18 13.64,-10.71 9.24,-7.06 20.25,-10.38 31.6,-10.38 20.73,0 42.59,11.08 56.85,30.72 51.91,71.05 102.83,142.83 156.75,212.38 12.75,16.55 19.42,35.24 19.37,51.41 0.05,-16.17 -6.62,-34.86 -19.37,-51.41 -53.92,-69.55 -104.84,-141.33 -156.75,-212.38 -14.26,-19.64 -36.12,-30.72 -56.85,-30.72"
         style="fill:#f9c372;fill-opacity:1;fill-rule:nonzero;stroke:none"
         id="path371"
         inkscape:connector-curvature="0" /><path
         d="m 6522.09,4473.08 c -0.42,0.35 -0.85,0.7 -1.28,1.05 v 0 c 0.43,-0.35 0.86,-0.7 1.28,-1.05"
         style="fill:#501d1f;fill-opacity:1;fill-rule:nonzero;stroke:none"
         id="path373"
         inkscape:connector-curvature="0" /><path
         d="m 6320.02,4132.56 c -11.35,0 -22.36,3.32 -31.6,10.38 -4.58,3.53 -9.12,7.1 -13.63,10.72 105.53,120.87 202.55,254.3 246.02,320.47 0.43,-0.35 0.86,-0.7 1.28,-1.05 5.83,-4.76 11.67,-9.53 17.5,-14.3 9,-7.35 13.36,-18.72 13.4,-31.71 0.05,-16.17 -6.62,-34.86 -19.37,-51.41 -53.92,-69.55 -104.84,-141.33 -156.75,-212.38 -14.26,-19.64 -36.12,-30.72 -56.85,-30.72"
         style="fill:#501d1f;fill-opacity:1;fill-rule:nonzero;stroke:none"
         id="path375"
         inkscape:connector-curvature="0" /><path
         d="m 6282.32,4247.35 c -0.34,0 -0.62,0.08 -0.82,0.26 -4.64,4.08 32.07,52.58 81.15,108.34 47.42,53.88 88,96.23 94.22,96.23 0.22,0 0.4,-0.05 0.53,-0.16 3.9,-3.21 -31.27,-52.03 -79.54,-108.73 -46.13,-54.27 -87.98,-95.94 -95.54,-95.94"
         style="fill:#937084;fill-opacity:1;fill-rule:nonzero;stroke:none"
         id="path377"
         inkscape:connector-curvature="0" /><path
         d="m 7279.69,4145.98 h -0.08 c -6.38,0.04 -11.5,5.25 -11.46,11.61 l 1.17,168.82 c 0.01,1.02 0.14,2.05 0.43,3.03 l 75.11,267.92 c 1.72,6.16 8.16,9.71 14.21,8 6.14,-1.72 9.72,-8.08 8,-14.21 l -74.7,-266.44 -1.15,-167.28 c -0.05,-6.34 -5.21,-11.45 -11.53,-11.45"
         style="fill:#512336;fill-opacity:1;fill-rule:nonzero;stroke:none"
         id="path379"
         inkscape:connector-curvature="0" /><path
         d="m 7070.7,5955.3 c 9.6,-17.64 3.08,-39.72 -14.57,-49.31 -17.64,-9.6 -39.72,-3.08 -49.32,14.57 -9.59,17.64 -3.07,39.72 14.58,49.32 17.64,9.59 39.72,3.07 49.31,-14.58"
         style="fill:#512336;fill-opacity:1;fill-rule:nonzero;stroke:none"
         id="path381"
         inkscape:connector-curvature="0" /><path
         d="m 7365,5418.13 c 9.6,-17.64 3.07,-39.73 -14.57,-49.32 -17.65,-9.6 -39.73,-3.07 -49.33,14.57 -9.6,17.65 -3.06,39.73 14.57,49.32 17.65,9.61 39.74,3.07 49.33,-14.57"
         style="fill:#512336;fill-opacity:1;fill-rule:nonzero;stroke:none"
         id="path383"
         inkscape:connector-curvature="0" /><path
         d="m 7420.05,4864.15 c 9.6,-17.65 3.08,-39.73 -14.57,-49.33 -17.65,-9.58 -39.73,-3.06 -49.33,14.58 -9.59,17.65 -3.06,39.73 14.58,49.33 17.65,9.59 39.73,3.07 49.32,-14.58"
         style="fill:#512336;fill-opacity:1;fill-rule:nonzero;stroke:none"
         id="path385"
         inkscape:connector-curvature="0" /><path
         d="m 7184.74,5874.48 c 59.49,-102.63 123.58,-202.52 186.16,-303.3 26.83,-42.96 16.85,-99.23 -23.71,-122.95 -21.98,-12.71 -44.29,-24.84 -66.92,-36.37 -41.77,-21.03 -94.39,1.15 -115.89,47.03 -50.57,107.3 -99.58,215.38 -153.39,321.11 -22.9,45.31 -16.38,95.62 16.26,113.38 17.77,9.67 35.55,19.34 53.33,29 32.78,17.84 78.57,-4.06 104.16,-47.9"
         style="fill:#512336;fill-opacity:1;fill-rule:nonzero;stroke:none"
         id="path387"
         inkscape:connector-curvature="0" /><path
         d="m 7329.57,5438.21 c 4.75,2.65 9.48,5.34 14.2,8.05 -4.72,-2.71 -9.45,-5.4 -14.2,-8.05 m 14.71,8.35 c 0.15,0.08 0.3,0.17 0.46,0.26 -0.16,-0.09 -0.31,-0.18 -0.46,-0.26 m 1.42,0.82 c 0.07,0.04 0.14,0.08 0.21,0.12 -0.07,-0.04 -0.14,-0.08 -0.21,-0.12"
         style="fill:#f9c372;fill-opacity:1;fill-rule:nonzero;stroke:none"
         id="path389"
         inkscape:connector-curvature="0" /><path
         d="m 7050.1,5905.81 v 0 c 1.66,0.91 3.33,1.81 5,2.72 -1.67,-0.91 -3.33,-1.82 -5,-2.72"
         style="fill:#501d1f;fill-opacity:1;fill-rule:nonzero;stroke:none"
         id="path391"
         inkscape:connector-curvature="0" /><path
         d="m 7325.6,5436 c -96.7,193.48 -214.47,382.18 -275.5,469.81 1.67,0.9 3.33,1.81 5,2.72 8.5,4.61 16.99,9.23 25.48,13.85 7.77,4.23 16.28,6.23 25.06,6.23 28.29,0 59.57,-20.68 79.1,-54.13 59.49,-102.63 123.58,-202.52 186.16,-303.3 10.11,-16.19 15,-34.28 14.99,-51.8 -0.03,-28.95 -13.43,-56.37 -38.7,-71.15 v 0 c -0.43,-0.24 -0.85,-0.49 -1.28,-0.73 -0.07,-0.04 -0.14,-0.08 -0.21,-0.12 -0.32,-0.19 -0.64,-0.37 -0.96,-0.56 -0.16,-0.09 -0.31,-0.18 -0.46,-0.26 -0.17,-0.1 -0.34,-0.2 -0.51,-0.3 -4.72,-2.71 -9.45,-5.4 -14.2,-8.05 -1.32,-0.74 -2.64,-1.48 -3.97,-2.21"
         style="fill:#501d1f;fill-opacity:1;fill-rule:nonzero;stroke:none"
         id="path393"
         inkscape:connector-curvature="0" /><path
         d="m 7207.13,5489.95 c -9.44,0 -50.36,69.03 -93.56,156.39 -44.42,89.8 -77.01,164.26 -70.73,167.68 0.15,0.09 0.33,0.13 0.52,0.13 7.92,0 50.22,-67.45 95.18,-154.49 46.15,-89.15 77.09,-165.64 69.3,-169.55 -0.21,-0.11 -0.45,-0.16 -0.71,-0.16"
         style="fill:#937084;fill-opacity:1;fill-rule:nonzero;stroke:none"
         id="path395"
         inkscape:connector-curvature="0" /><path
         d="m 7427.88,5297.8 c 10.46,-107.72 25.46,-214.91 38.97,-322.27 5.89,-45.83 -21.56,-88.64 -61.45,-92.82 -21.57,-2.16 -43.19,-3.71 -64.85,-4.63 -39.91,-1.5 -73.15,36.94 -73.85,83.15 -1.89,108.2 -2.28,216.43 -7.23,324.54 -1.99,46.28 20.68,85.47 52.31,87.74 17.23,1.23 34.47,2.46 51.7,3.7 31.77,2.27 59.79,-33.32 64.4,-79.41"
         style="fill:#512336;fill-opacity:1;fill-rule:nonzero;stroke:none"
         id="path397"
         inkscape:connector-curvature="0" /><path
         d="m 7397.42,4881.93 c -0.01,0 0,0 -0.01,0 0.64,0.06 1.27,0.12 1.9,0.18 -0.63,-0.06 -1.26,-0.12 -1.89,-0.18"
         style="fill:#f9c372;fill-opacity:1;fill-rule:nonzero;stroke:none"
         id="path399"
         inkscape:connector-curvature="0" /><path
         d="m 7384.31,4880.79 v 0 c 4.37,0.36 8.74,0.74 13.1,1.14 0.01,0 0,0 0.01,0 -4.37,-0.4 -8.75,-0.79 -13.11,-1.14"
         style="fill:#501d1f;fill-opacity:1;fill-rule:nonzero;stroke:none"
         id="path401"
         inkscape:connector-curvature="0" /><path
         d="m 7399.51,4882.13 c 0.23,0.02 0.45,0.04 0.68,0.07 -0.23,-0.03 -0.45,-0.05 -0.68,-0.07"
         style="fill:#f9c372;fill-opacity:1;fill-rule:nonzero;stroke:none"
         id="path403"
         inkscape:connector-curvature="0" /><path
         d="m 7333.94,5375.09 v 0 c 0.55,0.04 1.1,0.08 1.65,0.12 -0.55,-0.04 -1.1,-0.08 -1.65,-0.12"
         style="fill:#501d1f;fill-opacity:1;fill-rule:nonzero;stroke:none"
         id="path405"
         inkscape:connector-curvature="0" /><path
         d="m 7384.31,4880.79 c -7.7,197.19 -33.47,398.43 -50.37,494.3 0.55,0.04 1.1,0.08 1.65,0.12 9.3,0.66 18.59,1.32 27.89,2 0.96,0.07 1.93,0.1 2.88,0.1 30.58,0 57.05,-34.82 61.52,-79.51 10.46,-107.72 25.46,-214.91 38.97,-322.27 0.55,-4.21 0.81,-8.39 0.8,-12.52 -0.05,-40.85 -26.02,-76.51 -62.25,-80.3 v 0 c -1.74,-0.18 -3.47,-0.35 -5.21,-0.51 -0.23,-0.03 -0.45,-0.05 -0.68,-0.07 -0.07,-0.01 -0.13,-0.01 -0.2,-0.02 -0.63,-0.06 -1.26,-0.12 -1.9,-0.18 -4.36,-0.4 -8.73,-0.78 -13.1,-1.14"
         style="fill:#501d1f;fill-opacity:1;fill-rule:nonzero;stroke:none"
         id="path407"
         inkscape:connector-curvature="0" /><path
         d="m 7311.43,4970.53 c -7.51,0 -15.59,74.25 -18.77,165.39 -3.21,91.34 -2.56,165.45 3.53,165.9 0.02,0 0.04,0 0.05,0 6.16,0 15.83,-73.2 20.53,-164.39 4.78,-91.45 2.15,-166.63 -5.3,-166.9 -0.01,0 -0.02,0 -0.04,0"
         style="fill:#937084;fill-opacity:1;fill-rule:nonzero;stroke:none"
         id="path409"
         inkscape:connector-curvature="0" /><path
         d="m 7440.7,4757.24 c -12.07,-74.1 -20.97,-148.65 -30.92,-223.06 -4.16,-31.78 -30.3,-55.6 -57.99,-51.3 -14.95,2.4 -29.84,5.23 -44.63,8.46 -27.22,6.11 -42.84,37.81 -35.11,68.92 17.94,72.89 36.91,145.53 52.77,218.92 6.86,31.39 29.13,53.63 50.91,49.51 11.86,-2.24 23.71,-4.49 35.58,-6.74 21.86,-4.13 34.46,-32.99 29.39,-64.71"
         style="fill:#512336;fill-opacity:1;fill-rule:nonzero;stroke:none"
         id="path411"
         inkscape:connector-curvature="0" /><path
         d="m 7358.28,4482.38 c -2.15,0 -4.31,0.16 -6.49,0.5 -4.39,0.7 -8.76,1.45 -13.13,2.22 4.37,-0.77 8.75,-1.51 13.13,-2.22 2.18,-0.34 4.34,-0.5 6.49,-0.5 25.18,0 47.67,22.52 51.5,51.8 9.95,74.41 18.85,148.96 30.92,223.06 0.76,4.7 1.12,9.35 1.12,13.86 0,-4.51 -0.36,-9.16 -1.12,-13.86 -12.07,-74.1 -20.97,-148.65 -30.92,-223.06 -3.83,-29.28 -26.32,-51.8 -51.5,-51.8 m -19.93,2.78 c -0.15,0.02 -0.3,0.05 -0.45,0.08 0.15,-0.03 0.3,-0.06 0.45,-0.08 m -0.73,0.13 c -0.07,0.01 -0.15,0.02 -0.22,0.04 v 0 c 0.07,-0.02 0.15,-0.03 0.22,-0.04"
         style="fill:#f9c372;fill-opacity:1;fill-rule:nonzero;stroke:none"
         id="path413"
         inkscape:connector-curvature="0" /><path
         d="m 7337.4,4485.33 c -0.07,0.01 -0.13,0.02 -0.2,0.03 v 0 c 0.07,-0.01 0.13,-0.02 0.2,-0.03 v 0"
         style="fill:#501d1f;fill-opacity:1;fill-rule:nonzero;stroke:none"
         id="path415"
         inkscape:connector-curvature="0" /><path
         d="m 7411.31,4821.95 c -5.34,1.01 -10.67,2.02 -16.01,3.03 5.34,-1 10.67,-2.01 16.01,-3.03"
         style="fill:#501d1f;fill-opacity:1;fill-rule:nonzero;stroke:none"
         id="path417"
         inkscape:connector-curvature="0" /><path
         d="m 7358.28,4482.38 c -2.15,0 -4.31,0.16 -6.49,0.5 -4.38,0.71 -8.76,1.45 -13.13,2.22 -0.1,0.02 -0.21,0.04 -0.31,0.06 -0.15,0.02 -0.3,0.05 -0.45,0.08 -0.1,0.01 -0.19,0.03 -0.28,0.05 -0.07,0.01 -0.15,0.02 -0.22,0.04 -0.07,0.01 -0.13,0.02 -0.2,0.03 29.83,133.6 48.16,273.14 53.78,340.44 1.44,-0.27 2.88,-0.54 4.32,-0.82 5.34,-1.01 10.67,-2.02 16.01,-3.03 v 0 c 18.62,-3.52 30.52,-24.97 30.51,-50.85 0,-4.51 -0.36,-9.16 -1.12,-13.86 -12.07,-74.1 -20.97,-148.65 -30.92,-223.06 -3.83,-29.28 -26.32,-51.8 -51.5,-51.8"
         style="fill:#501d1f;fill-opacity:1;fill-rule:nonzero;stroke:none"
         id="path419"
         inkscape:connector-curvature="0" /><path
         d="m 7304.12,4558.5 c -0.06,0 -0.12,0 -0.18,0.02 -5.13,1.16 2.61,52.47 16.66,114.25 13.96,61.35 27.46,110.64 31.76,110.64 0.03,0 0.07,0 0.1,-0.01 4.23,-0.82 -2.24,-51.74 -15.3,-113.91 -12.86,-61.47 -27.8,-110.99 -33.04,-110.99"
         style="fill:#937084;fill-opacity:1;fill-rule:nonzero;stroke:none"
         id="path421"
         inkscape:connector-curvature="0" /><path
         d="m 5147.3,4134.96 c -3.04,0 -6.06,1.2 -8.33,3.57 -4.41,4.59 -4.25,11.89 0.35,16.3 l 142.89,136.92 c 0.74,0.7 1.57,1.32 2.48,1.81 l 286.61,155.68 c 5.59,3.04 12.6,0.96 15.64,-4.63 3.05,-5.61 0.97,-12.61 -4.63,-15.65 l -285.25,-154.93 -141.78,-135.86 c -2.24,-2.14 -5.11,-3.21 -7.98,-3.21"
         style="fill:#512336;fill-opacity:1;fill-rule:nonzero;stroke:none"
         id="path423"
         inkscape:connector-curvature="0" /><path
         d="m 6488.18,5790.63 c -7,-22.47 -30.9,-35.02 -53.38,-28.03 -22.48,7 -35.03,30.9 -28.02,53.38 6.99,22.48 30.89,35.03 53.37,28.02 22.48,-6.99 35.03,-30.89 28.03,-53.37"
         style="fill:#512336;fill-opacity:1;fill-rule:nonzero;stroke:none"
         id="path425"
         inkscape:connector-curvature="0" /><path
         d="m 6276.9,5104.43 c -7,-22.48 -30.9,-35.02 -53.38,-28.03 -22.47,7 -35.02,30.89 -28.02,53.38 6.99,22.48 30.89,35.02 53.37,28.02 22.48,-6.99 35.03,-30.89 28.03,-53.37"
         style="fill:#512336;fill-opacity:1;fill-rule:nonzero;stroke:none"
         id="path427"
         inkscape:connector-curvature="0" /><path
         d="m 5856.08,4605.66 c -6.99,-22.48 -30.89,-35.02 -53.37,-28.03 -22.48,7 -35.03,30.9 -28.03,53.38 6.99,22.48 30.89,35.02 53.37,28.02 22.48,-6.99 35.03,-30.88 28.03,-53.37"
         style="fill:#512336;fill-opacity:1;fill-rule:nonzero;stroke:none"
         id="path429"
         inkscape:connector-curvature="0" /><path
         d="m 6513.36,5628.74 c -37.7,-133.86 -69.34,-269.32 -102.96,-404.26 -14.2,-57.64 -69.66,-95.21 -122.73,-80.49 -28.65,8.1 -57.07,16.95 -85.25,26.56 -51.8,17.95 -76.13,80.3 -55.11,135.85 48.91,130.17 99.75,259.65 144.69,391.26 19.41,56.26 67.03,91.87 108.62,78.93 22.64,-7.05 45.3,-14.1 67.94,-21.15 41.78,-12.99 60.77,-69.37 44.8,-126.7"
         style="fill:#512336;fill-opacity:1;fill-rule:nonzero;stroke:none"
         id="path431"
         inkscape:connector-curvature="0" /><path
         d="m 6286.2,5144.41 c -0.33,0.09 -0.65,0.18 -0.97,0.28 0.32,-0.1 0.64,-0.19 0.97,-0.28 m -1.36,0.39 c -7.94,2.25 -15.87,4.57 -23.78,6.94 0,0.01 -0.01,0.01 -0.01,0.01 7.91,-2.37 15.84,-4.69 23.79,-6.95"
         style="fill:#f9c372;fill-opacity:1;fill-rule:nonzero;stroke:none"
         id="path433"
         inkscape:connector-curvature="0" /><path
         d="m 6261.06,5151.74 c -0.44,0.13 -0.88,0.27 -1.31,0.4 v 0 c 0.43,-0.13 0.86,-0.26 1.3,-0.39 0,0 0.01,0 0.01,-0.01"
         style="fill:#501d1f;fill-opacity:1;fill-rule:nonzero;stroke:none"
         id="path435"
         inkscape:connector-curvature="0" /><path
         d="m 6437.23,5765.19 c -2.5,0.78 -5,1.56 -7.49,2.34 v 0 c 2.5,-0.78 4.99,-1.56 7.49,-2.34"
         style="fill:#501d1f;fill-opacity:1;fill-rule:nonzero;stroke:none"
         id="path437"
         inkscape:connector-curvature="0" /><path
         d="m 6311.17,5140.79 c -7.8,0 -15.68,1.03 -23.5,3.2 v 0 c -0.49,0.14 -0.98,0.28 -1.47,0.42 -0.33,0.09 -0.65,0.18 -0.97,0.28 -0.13,0.03 -0.26,0.07 -0.39,0.11 -7.95,2.26 -15.88,4.58 -23.79,6.95 -0.44,0.13 -0.87,0.26 -1.3,0.39 83.69,239.35 146.15,492.5 169.99,615.39 2.49,-0.78 4.99,-1.56 7.49,-2.34 10.44,-3.25 20.89,-6.5 31.33,-9.75 31.83,-9.89 50.42,-44.97 50.42,-86.46 0,-12.97 -1.82,-26.58 -5.62,-40.24 -37.7,-133.86 -69.34,-269.32 -102.96,-404.26 -12.11,-49.14 -54.2,-83.69 -99.23,-83.69"
         style="fill:#501d1f;fill-opacity:1;fill-rule:nonzero;stroke:none"
         id="path439"
         inkscape:connector-curvature="0" /><path
         d="m 6209.62,5295.27 c -0.19,0 -0.38,0.03 -0.56,0.09 -9.77,3.41 15.14,96.23 54.35,206.87 38.7,109.17 74.22,196.48 82.88,196.48 0.12,0 0.24,-0.01 0.35,-0.05 8.07,-2.55 -14.28,-94.97 -51.64,-206.54 -36.57,-109.57 -74.85,-196.85 -85.38,-196.85"
         style="fill:#937084;fill-opacity:1;fill-rule:nonzero;stroke:none"
         id="path441"
         inkscape:connector-curvature="0" /><path
         d="m 6227.08,4953.28 c -82.02,-96.78 -159.89,-196.95 -239.13,-296.01 -33.71,-42.38 -92.13,-54.26 -128.24,-24.13 -19.43,16.37 -38.39,33.29 -56.86,50.75 -33.85,32.32 -28.68,91.67 9.6,130 89.43,89.96 180.11,178.68 266.96,271.16 37.29,39.47 88.76,52.43 116.51,27.68 15.1,-13.48 30.22,-26.97 45.33,-40.44 27.87,-24.86 20.82,-77.5 -14.17,-119.01"
         style="fill:#512336;fill-opacity:1;fill-rule:nonzero;stroke:none"
         id="path443"
         inkscape:connector-curvature="0" /><path
         d="m 5907.7,4616.36 c -17.49,0 -34.33,5.38 -47.99,16.78 -2.39,2.01 -4.78,4.04 -7.16,6.07 v 0.01 c 2.38,-2.04 4.77,-4.07 7.16,-6.08 13.66,-11.4 30.5,-16.78 47.99,-16.78 28.77,0 59.29,14.56 80.25,40.91 79.24,99.06 157.11,199.23 239.13,296.01 20.43,24.24 31.34,52.28 31.33,76.36 0.01,-24.08 -10.9,-52.12 -31.33,-76.36 -82.02,-96.78 -159.89,-196.95 -239.13,-296.01 -20.96,-26.35 -51.48,-40.91 -80.25,-40.91"
         style="fill:#f9c372;fill-opacity:1;fill-rule:nonzero;stroke:none"
         id="path445"
         inkscape:connector-curvature="0" /><path
         d="m 5852.55,4639.21 c -3.91,3.35 -7.81,6.71 -11.68,10.1 v 0 c 3.88,-3.39 7.77,-6.75 11.68,-10.09 v -0.01"
         style="fill:#501d1f;fill-opacity:1;fill-rule:nonzero;stroke:none"
         id="path447"
         inkscape:connector-curvature="0" /><path
         d="m 6219.32,5091.85 c -1.33,1.19 -2.65,2.37 -3.98,3.55 v 0 c 1.33,-1.18 2.65,-2.36 3.98,-3.55"
         style="fill:#501d1f;fill-opacity:1;fill-rule:nonzero;stroke:none"
         id="path449"
         inkscape:connector-curvature="0" /><path
         d="m 5907.7,4616.36 c -17.49,0 -34.33,5.38 -47.99,16.78 -2.39,2.01 -4.78,4.04 -7.16,6.08 -3.91,3.34 -7.8,6.7 -11.68,10.09 159.52,167.52 307.67,353.56 374.47,446.09 1.33,-1.18 2.65,-2.36 3.98,-3.55 7.3,-6.52 14.61,-13.04 21.93,-19.56 11.59,-10.34 17.15,-25.49 17.16,-42.65 0.01,-24.08 -10.9,-52.12 -31.33,-76.36 -82.02,-96.78 -159.89,-196.95 -239.13,-296.01 -20.96,-26.35 -51.48,-40.91 -80.25,-40.91"
         style="fill:#501d1f;fill-opacity:1;fill-rule:nonzero;stroke:none"
         id="path451"
         inkscape:connector-curvature="0" /><path
         d="m 5858.12,4783.41 c -0.56,0 -0.98,0.14 -1.28,0.43 -6.38,6.11 49.54,73.65 123.69,150.91 71.43,74.42 132.32,132.8 141.53,132.8 0.36,0 0.64,-0.09 0.84,-0.26 5.37,-4.84 -48.36,-72.92 -121.41,-151.58 -69.56,-75.01 -132.17,-132.3 -143.37,-132.3"
         style="fill:#937084;fill-opacity:1;fill-rule:nonzero;stroke:none"
         id="path453"
         inkscape:connector-curvature="0" /><path
         d="m 5783.05,4500.97 c -72.16,-50.37 -142.11,-103.78 -212.79,-156.19 -30.12,-22.46 -71.5,-19.94 -90.51,6.86 -10.19,14.54 -19.98,29.35 -29.34,44.43 -17.09,27.89 -3.2,66.91 29.27,85.81 75.95,44.46 152.51,87.85 227.17,134.46 32,19.85 68.9,19.29 83.21,-2.37 7.8,-11.81 15.6,-23.62 23.4,-35.42 14.39,-21.76 0.41,-55.93 -30.41,-77.58"
         style="fill:#512336;fill-opacity:1;fill-rule:nonzero;stroke:none"
         id="path455"
         inkscape:connector-curvature="0" /><path
         d="m 5806.14,4589.63 c -2.02,3.05 -4.03,6.11 -6.05,9.16 v 0 c 2.02,-3.05 4.04,-6.11 6.05,-9.16"
         style="fill:#501d1f;fill-opacity:1;fill-rule:nonzero;stroke:none"
         id="path457"
         inkscape:connector-curvature="0" /><path
         d="m 5525.59,4329.57 c -18.31,0 -35.43,7.39 -45.84,22.07 v 0 c -3.32,4.74 -6.6,9.5 -9.83,14.3 136.69,84.03 269,182.6 330.17,232.85 2.02,-3.05 4.03,-6.11 6.05,-9.16 2.44,-3.69 4.88,-7.39 7.32,-11.08 3.85,-5.82 5.67,-12.53 5.68,-19.65 0.02,-19.5 -13.52,-42.08 -36.09,-57.93 -72.16,-50.37 -142.11,-103.78 -212.79,-156.19 -13.62,-10.16 -29.56,-15.21 -44.67,-15.21"
         style="fill:#501d1f;fill-opacity:1;fill-rule:nonzero;stroke:none"
         id="path459"
         inkscape:connector-curvature="0" /><path
         d="m 5506,4453.02 c -0.89,0 -1.48,0.21 -1.73,0.62 -3.22,5.28 46.24,40.67 109.68,79.32 59.4,36.19 109.45,63.97 117.89,63.97 0.58,0 0.96,-0.13 1.14,-0.4 2.76,-4.22 -45.33,-40.38 -108.27,-80.17 -57.86,-36.65 -108.48,-63.34 -118.71,-63.34"
         style="fill:#937084;fill-opacity:1;fill-rule:nonzero;stroke:none"
         id="path461"
         inkscape:connector-curvature="0" /><path
         d="m 6773.11,6447.74 c 0,-42.13 -34.14,-76.28 -76.28,-76.28 -42.13,0 -76.28,34.15 -76.28,76.28 0,42.13 34.15,76.29 76.28,76.29 42.14,0 76.28,-34.16 76.28,-76.29"
         style="fill:#361b25;fill-opacity:1;fill-rule:nonzero;stroke:none"
         id="path463"
         inkscape:connector-curvature="0" /><path
         d="m 6316.4,6164.4 c 0,-42.1 -34.1,-76.3 -76.2,-76.3 -37.2,0 -68.1,26.6 -74.9,61.8 -0.9,4.7 -1.4,9.5 -1.4,14.5 0,42.1 34.1,76.3 76.3,76.3 33.2,0 61.5,-21.3 71.8,-51 2.9,-7.9 4.4,-16.4 4.4,-25.3"
         style="fill:#512336;fill-opacity:1;fill-rule:nonzero;stroke:none"
         id="path465"
         inkscape:connector-curvature="0" /><path
         d="m 6316.4,6164.4 c 0,-42.1 -34.1,-76.3 -76.2,-76.3 -37.2,0 -68.1,26.6 -74.9,61.8 31,-26.9 72.5,-50.4 106.4,-26.6 22.6,15.9 34.4,41 40.3,66.4 2.9,-7.9 4.4,-16.4 4.4,-25.3"
         style="fill:#361b25;fill-opacity:1;fill-rule:nonzero;stroke:none"
         id="path467"
         inkscape:connector-curvature="0" /><path
         d="m 6175.54,6170.61 c -0.46,0 -0.61,0.63 -0.5,2.03 0,0 5.99,40.85 76.2,48.72 1.15,0.13 2.01,0.19 2.61,0.19 6.77,0 -18.58,-7.8 -38.11,-17.9 -25.75,-13.32 -37.64,-33.04 -40.2,-33.04"
         style="fill:#937084;fill-opacity:1;fill-rule:nonzero;stroke:none"
         id="path469"
         inkscape:connector-curvature="0" /><path
         d="m 7256.4,6654.4 c 0,-42.1 -34.1,-76.3 -76.2,-76.3 -37.2,0 -68.1,26.6 -74.9,61.8 -0.9,4.7 -1.4,9.5 -1.4,14.5 0,42.1 34.1,76.3 76.3,76.3 33.2,0 61.5,-21.3 71.8,-51 2.9,-7.9 4.4,-16.4 4.4,-25.3"
         style="fill:#512336;fill-opacity:1;fill-rule:nonzero;stroke:none"
         id="path471"
         inkscape:connector-curvature="0" /><path
         d="m 7256.4,6654.4 c 0,-42.1 -34.1,-76.3 -76.2,-76.3 -37.2,0 -68.1,26.6 -74.9,61.8 31,-26.9 72.5,-50.4 106.4,-26.6 22.6,15.9 34.4,41 40.3,66.4 2.9,-7.9 4.4,-16.4 4.4,-25.3"
         style="fill:#361b25;fill-opacity:1;fill-rule:nonzero;stroke:none"
         id="path473"
         inkscape:connector-curvature="0" /><path
         d="m 7115.54,6660.61 c -0.46,0 -0.61,0.63 -0.5,2.03 0,0 5.99,40.85 76.2,48.72 1.14,0.13 2.01,0.19 2.61,0.19 6.77,0 -18.58,-7.8 -38.11,-17.9 -25.75,-13.32 -37.64,-33.04 -40.2,-33.04"
         style="fill:#937084;fill-opacity:1;fill-rule:nonzero;stroke:none"
         id="path475"
         inkscape:connector-curvature="0" /><path
         d="m 6786.51,6396.64 c 3.57,8 5.81,16.72 6.43,25.89 8.5,-11.55 9.49,-19.54 2.08,-23.53 -1.83,-0.98 -4.66,-1.77 -8.51,-2.36"
         style="fill:#f6d184;fill-opacity:1;fill-rule:nonzero;stroke:none"
         id="path477"
         inkscape:connector-curvature="0" /><path
         d="m 6761.57,6395.28 c -2.92,0 -5.99,0.03 -9.26,0.1 12.1,12.82 19.81,29.82 20.71,48.61 8.68,-8.1 15.38,-15.3 19.92,-21.46 -0.62,-9.17 -2.86,-17.89 -6.43,-25.89 -5.97,-0.91 -14.3,-1.36 -24.94,-1.36"
         style="fill:#f3b67b;fill-opacity:1;fill-rule:nonzero;stroke:none"
         id="path479"
         inkscape:connector-curvature="0" /><path
         d="m 6303.02,6446.93 c -1158.85,168.47 -3940.94,704.95 -3774.19,944.21 207.45,297.64 1497.22,351.76 1731.73,360.78 0.82,0.03 1.66,0.04 2.53,0.04 186.85,0 1593.14,-723.64 2227.79,-1113.6 -77.93,-47.45 -144.51,-111.29 -187.86,-191.43"
         style="fill:#fbfce9;fill-opacity:1;fill-rule:nonzero;stroke:none"
         id="path481"
         inkscape:connector-curvature="0" /><path
         d="m 6634.23,6404.13 c -47.16,4.85 -103.45,11.58 -167.82,20.07 42.38,37.2 101,82.35 176.08,117.44 10.9,-7.31 21.25,-14.35 31.14,-21.2 -30.78,-9.82 -53.08,-38.65 -53.08,-72.7 0,-16.22 5.05,-31.25 13.68,-43.61 m -222.32,27.39 c -34.43,4.72 -70.79,9.87 -108.89,15.41 43.35,80.14 109.93,143.98 187.86,191.43 30.13,-18.52 58.47,-36.24 84.91,-53.14 -87.65,-46.49 -137.23,-108.26 -163.88,-153.7"
         style="fill:#f6d184;fill-opacity:1;fill-rule:nonzero;stroke:none"
         id="path483"
         inkscape:connector-curvature="0" /><path
         d="m 6466.41,6424.2 c -17.53,2.31 -35.81,4.76 -54.5,7.32 26.65,45.44 76.23,107.21 163.88,153.7 23.85,-15.24 46.18,-29.83 66.7,-43.58 -75.08,-35.09 -133.7,-80.24 -176.08,-117.44"
         style="fill:#f7e1a9;fill-opacity:1;fill-rule:nonzero;stroke:none"
         id="path485"
         inkscape:connector-curvature="0" /><path
         d="m 6752.31,6395.38 c -27.69,0.58 -67.64,3.57 -118.08,8.75 -8.63,12.36 -13.68,27.39 -13.68,43.61 0,34.05 22.3,62.88 53.08,72.7 44.05,-30.5 77.88,-56.35 99.39,-76.45 -0.9,-18.79 -8.61,-35.79 -20.71,-48.61"
         style="fill:#afa294;fill-opacity:1;fill-rule:nonzero;stroke:none"
         id="path487"
         inkscape:connector-curvature="0" /><path
         d="m 6795.02,6388.99 c -1.26,0 -2.54,0.24 -3.78,0.75 L 3600.57,7692.93 c -5.11,2.08 -7.57,7.92 -5.48,13.03 2.09,5.12 7.94,7.59 13.04,5.48 L 6798.8,6408.26 c 5.12,-2.09 7.57,-7.93 5.48,-13.04 -1.58,-3.88 -5.32,-6.23 -9.26,-6.23"
         style="fill:#512336;fill-opacity:1;fill-rule:nonzero;stroke:none"
         id="path489"
         inkscape:connector-curvature="0" /><path
         d="m 3205.29,7056.44 c -4.11,0 -7.96,2.55 -9.42,6.64 -1.86,5.21 0.86,10.92 6.06,12.78 l 1037.24,369.79 c 5.21,1.86 10.92,-0.85 12.77,-6.05 1.86,-5.21 -0.86,-10.93 -6.06,-12.78 l -1037.23,-369.8 c -1.12,-0.39 -2.25,-0.58 -3.36,-0.58"
         style="fill:#512336;fill-opacity:1;fill-rule:nonzero;stroke:none"
         id="path491"
         inkscape:connector-curvature="0" /><path
         d="m 4477.03,6767.82 c -2.75,0 -5.49,1.13 -7.46,3.33 -3.68,4.12 -3.32,10.44 0.79,14.12 l 423.92,378.82 c 4.12,3.69 10.45,3.32 14.12,-0.79 3.68,-4.12 3.32,-10.44 -0.79,-14.12 l -423.92,-378.82 c -1.91,-1.7 -4.29,-2.54 -6.66,-2.54"
         style="fill:#512336;fill-opacity:1;fill-rule:nonzero;stroke:none"
         id="path493"
         inkscape:connector-curvature="0" /><path
         d="m 5365.98,6596.95 c -2.28,0 -4.58,0.78 -6.46,2.38 -4.21,3.57 -4.73,9.88 -1.16,14.09 l 226,266.56 c 3.57,4.21 9.87,4.75 14.09,1.16 4.22,-3.57 4.74,-9.88 1.16,-14.09 l -226,-266.56 c -1.97,-2.34 -4.79,-3.54 -7.63,-3.54"
         style="fill:#512336;fill-opacity:1;fill-rule:nonzero;stroke:none"
         id="path495"
         inkscape:connector-curvature="0" /></g></g></svg>