<?xml version="1.0" encoding="UTF-8" standalone="no"?>
<svg
   width="199.02344"
   height="40"
   viewBox="0 0 199.02343 39.999997"
   version="1.1"
   id="svg10"
   sodipodi:docname="logo.svg"
   inkscape:version="1.3 (1:1.3+202307231459+0e150ed6c4)"
   xmlns:inkscape="http://www.inkscape.org/namespaces/inkscape"
   xmlns:sodipodi="http://sodipodi.sourceforge.net/DTD/sodipodi-0.dtd"
   xmlns="http://www.w3.org/2000/svg"
   xmlns:svg="http://www.w3.org/2000/svg">
  <sodipodi:namedview
     id="namedview10"
     pagecolor="#ffffff"
     bordercolor="#000000"
     borderopacity="0.25"
     inkscape:showpageshadow="2"
     inkscape:pageopacity="0.0"
     inkscape:pagecheckerboard="0"
     inkscape:deskcolor="#d1d1d1"
     inkscape:zoom="6.7094685"
     inkscape:cx="105.14991"
     inkscape:cy="35.993909"
     inkscape:window-width="1920"
     inkscape:window-height="1043"
     inkscape:window-x="1920"
     inkscape:window-y="0"
     inkscape:window-maximized="1"
     inkscape:current-layer="svg10" />
  <defs
     id="defs1">
    <style
       id="style1">.a{fill:#431e2e;}.b{fill:#fff;}</style>
  </defs>
  <g
     transform="matrix(1.0658424,0,0,1.0658465,0.01384336,0.0138368)"
     id="g10">
    <g
       id="g9">
      <path
         class="a"
         d="m 49.763,47.112 a 3.781,3.781 0 1 0 -2.677,4.632 3.779,3.779 0 0 0 2.677,-4.632 m -1.73,1.552 v 0 a 0.582,0.582 0 0 1 -0.58,-0.589 1.284,1.284 0 0 0 -1.353,-1.353 0.585,0.585 0 0 1 0,-1.17 h 0.008 a 2.446,2.446 0 0 1 2.5,2.531 0.589,0.589 0 0 1 -0.584,0.581"
         transform="translate(-25.419,-26.597)"
         id="path1" />
      <path
         class="a"
         d="M 35.521,15.456 A 16.031,16.031 0 0 0 32.015,10.177 C 26.896,5.058 19.645,4.929 12.915,5.923 A 9.958,9.958 0 0 1 6.515,4.711 10,10 0 0 1 4.465,3.131 9.925,9.925 0 0 1 2.72,0.773 C 2.712,0.761 2.708,0.745 2.7,0.734 A 1.6,1.6 0 0 0 2.463,0.422 1.444,1.444 0 0 0 0.277,2.3 l 0.047,0.058 a 16.028,16.028 0 0 1 3.168,7.665 C 3.839,12.666 3.679,15.345 3.901,18 a 42.378,42.378 0 0 0 1.355,7.74 16.011,16.011 0 1 0 30.265,-10.284 m -5.9,5.723 -2.887,1.247 a 6.3,6.3 0 0 1 -0.347,1.291 l 1.878,2.522 a 1.362,1.362 0 0 1 -0.055,1.693 c -0.167,0.195 -0.343,0.382 -0.526,0.565 -0.183,0.183 -0.374,0.358 -0.565,0.526 a 1.359,1.359 0 0 1 -1.691,0.055 L 22.906,27.2 a 5.58,5.58 0 0 1 -0.632,0.206 6.481,6.481 0 0 1 -0.654,0.141 l -1.247,2.889 a 1.352,1.352 0 0 1 -1.492,0.8 c -0.249,-0.047 -0.5,-0.1 -0.752,-0.172 -0.252,-0.072 -0.495,-0.141 -0.736,-0.226 A 1.356,1.356 0 0 1 16.501,29.4 l 0.362,-3.127 A 6.148,6.148 0 0 1 15.92,25.333 L 12.8,25.69 a 1.356,1.356 0 0 1 -1.437,-0.893 c -0.086,-0.242 -0.16,-0.487 -0.226,-0.737 -0.066,-0.25 -0.125,-0.5 -0.172,-0.753 a 1.354,1.354 0 0 1 0.795,-1.493 l 2.887,-1.247 a 6.031,6.031 0 0 1 0.347,-1.287 l -1.878,-2.526 a 1.362,1.362 0 0 1 0.054,-1.692 c 0.168,-0.2 0.343,-0.382 0.526,-0.566 0.183,-0.184 0.374,-0.358 0.565,-0.526 a 1.359,1.359 0 0 1 1.691,-0.055 l 2.525,1.879 a 5.908,5.908 0 0 1 0.631,-0.206 5.522,5.522 0 0 1 0.654,-0.137 l 1.247,-2.893 a 1.352,1.352 0 0 1 1.492,-0.8 c 0.249,0.047 0.5,0.1 0.752,0.172 0.252,0.072 0.495,0.141 0.736,0.226 a 1.356,1.356 0 0 1 0.892,1.439 l -0.362,3.123 a 6.154,6.154 0 0 1 0.943,0.943 l 3.121,-0.363 a 1.357,1.357 0 0 1 1.438,0.893 c 0.085,0.242 0.16,0.487 0.226,0.737 0.066,0.25 0.125,0.5 0.171,0.753 a 1.353,1.353 0 0 1 -0.795,1.493"
         transform="translate(0,-0.001)"
         id="path2" />
      <path
         class="a"
         d="m 145.428,34.057 a 7.994,7.994 0 0 0 -0.524,-2.3 6.187,6.187 0 0 0 -1.151,-1.9 7.1,7.1 0 0 0 -0.841,-0.8 l -0.026,-0.019 -0.032,-0.02 a 9.116,9.116 0 0 0 -1.644,-1.249 15.924,15.924 0 0 0 -2.737,-1.276 c -0.194,-0.078 -0.394,-0.136 -0.608,-0.213 -0.136,-0.039 -0.291,-0.1 -0.427,-0.136 a 15.552,15.552 0 0 1 -1.6,-0.628 7.5,7.5 0 0 1 -1.643,-0.919 2.6,2.6 0 0 1 -1.055,-1.5 1.839,1.839 0 0 1 0.078,-0.919 2.181,2.181 0 0 1 0.938,-1.179 3.06,3.06 0 0 1 2.387,-0.155 8.487,8.487 0 0 1 2.225,1.094 c 0.213,0.136 0.421,0.278 0.621,0.434 a 3.1,3.1 0 0 0 1.915,0.66 3.071,3.071 0 0 0 1.9,-5.484 12,12 0 0 0 -8.656,-2.434 10.038,10.038 0 0 0 -3.4,0.881 8.458,8.458 0 0 0 -2.7,1.994 7.737,7.737 0 0 0 -1.643,2.8 8.341,8.341 0 0 0 -0.369,3.25 8.681,8.681 0 0 0 0.524,2.3 6.557,6.557 0 0 0 1.158,1.9 8.166,8.166 0 0 0 0.835,0.8 l 0.039,0.019 0.019,0.039 a 9.351,9.351 0 0 0 1.663,1.23 15.708,15.708 0 0 0 2.717,1.276 c 0.233,0.078 0.453,0.155 0.666,0.233 0.136,0.038 0.252,0.078 0.388,0.116 0.531,0.194 1.08,0.395 1.585,0.628 a 7.28,7.28 0 0 1 1.7,0.958 2.418,2.418 0 0 1 1.016,1.567 1.92,1.92 0 0 1 -0.446,1.464 h -0.02 l -0.026,0.038 a 1.962,1.962 0 0 1 -0.64,0.473 l -0.058,0.039 -0.077,0.019 a 4.226,4.226 0 0 1 -1.779,0.078 6.5,6.5 0 0 1 -2.407,-0.978 c -0.3,-0.207 -0.6,-0.421 -0.893,-0.647 a 3.056,3.056 0 0 0 -3.629,-0.1 l -0.046,0.032 a 3.092,3.092 0 0 0 -0.155,4.94 11.91,11.91 0 0 0 8.766,2.5 9.809,9.809 0 0 0 3.4,-0.861 8.6,8.6 0 0 0 2.678,-1.994 7.737,7.737 0 0 0 1.643,-2.8 7.959,7.959 0 0 0 0.369,-3.25"
         transform="translate(-75.906,-9.043)"
         id="path3" />
      <path
         class="a"
         d="m 184.144,14.882 h -1.022 a 3.068,3.068 0 0 0 -3.073,3.075 v 21.875 a 3.073,3.073 0 0 0 3.073,3.075 h 1.022 a 3.073,3.073 0 0 0 3.073,-3.075 V 17.957 a 3.068,3.068 0 0 0 -3.073,-3.075"
         transform="translate(-108.121,-8.933)"
         id="path4" />
      <path
         class="a"
         d="m 222.771,15.076 h -15.1 a 3.077,3.077 0 0 0 -3.073,3.075 v 0.324 a 3.077,3.077 0 0 0 3.073,3.075 h 3.965 v 18.4 a 3.077,3.077 0 0 0 3.073,3.075 h 1.009 a 3.077,3.077 0 0 0 3.073,-3.075 v -18.4 h 3.979 a 3.072,3.072 0 0 0 3.073,-3.075 v -0.324 a 3.072,3.072 0 0 0 -3.073,-3.075"
         transform="translate(-122.863,-9.049)"
         id="path5" />
      <path
         class="a"
         d="m 281.349,21.375 a 3.077,3.077 0 0 0 3.073,-3.075 v -0.343 a 3.072,3.072 0 0 0 -3.073,-3.075 h -13.6 a 3.072,3.072 0 0 0 -3.072,3.075 v 21.875 a 3.076,3.076 0 0 0 3.072,3.075 h 13.6 a 3.077,3.077 0 0 0 3.073,-3.075 v -0.343 a 3.077,3.077 0 0 0 -3.073,-3.075 h -9.5 V 32.128 H 279 a 3.072,3.072 0 0 0 3.073,-3.075 V 28.729 A 3.077,3.077 0 0 0 279,25.654 h -7.148 v -4.279 z"
         transform="translate(-158.941,-8.933)"
         id="path6" />
      <path
         class="b"
         d="m 341.979,14.882 h -13.6 a 3.072,3.072 0 0 0 -3.072,3.075 v 21.875 a 3.077,3.077 0 0 0 3.072,3.075 h 1.029 a 3.073,3.073 0 0 0 3.073,-3.075 v -7.7 h 7.168 a 3.069,3.069 0 0 0 3.073,-3.075 V 28.73 a 3.073,3.073 0 0 0 -3.073,-3.075 h -7.168 v -4.28 h 9.5 a 3.077,3.077 0 0 0 3.073,-3.075 v -0.343 a 3.073,3.073 0 0 0 -3.073,-3.075"
         transform="translate(-195.35,-8.933)"
         id="path7" />
      <path
         class="b"
         d="m 384.646,14.882 h -1.029 a 3.073,3.073 0 0 0 -3.073,3.075 v 21.875 a 3.077,3.077 0 0 0 3.073,3.075 h 1.029 a 3.077,3.077 0 0 0 3.073,-3.075 V 17.957 a 3.073,3.073 0 0 0 -3.073,-3.075"
         transform="translate(-228.52,-8.933)"
         id="path8" />
      <path
         class="b"
         d="m 429.169,28.9 c -0.233,-0.932 -0.725,-1.592 -1.637,-1.592 H 420.1 a 1.6,1.6 0 0 0 -1.6,1.605 v 1.975 a 1.6,1.6 0 0 0 1.6,1.605 h 2.678 a 4.488,4.488 0 0 1 -1.345,2.777 5.689,5.689 0 0 1 -2.717,1.094 6.116,6.116 0 0 1 -5.57,-1.78 7.15,7.15 0 0 1 -1.391,-2.447 11.481,11.481 0 0 1 0,-6.474 7.113,7.113 0 0 1 1.391,-2.44 6.037,6.037 0 0 1 4.865,-1.859 5.04,5.04 0 0 1 3.61,1.619 3.156,3.156 0 0 0 2.316,1.062 h 0.168 a 3.078,3.078 0 0 0 2.316,-5.1 11.806,11.806 0 0 0 -3.933,-2.881 15.317,15.317 0 0 0 -9.438,-0.745 11.265,11.265 0 0 0 -5.512,3.386 13.69,13.69 0 0 0 -1.371,1.839 0.787,0.787 0 0 1 -0.1,0.175 17.117,17.117 0 0 0 0,16.392 0.425,0.425 0 0 1 0.1,0.156 14.078,14.078 0 0 0 1.371,1.838 11.257,11.257 0 0 0 5.512,3.386 15.453,15.453 0 0 0 9.438,-0.725 11.412,11.412 0 0 0 6.159,-6.726 13.76,13.76 0 0 0 0.524,-6.138"
         transform="translate(-242.591,-8.942)"
         id="path9" />
    </g>
  </g>
</svg>
